<?xml version="1.0" standalone="no"?><!DOCTYPE svg PUBLIC "-//W3C//DTD SVG 1.1//EN" "http://www.w3.org/Graphics/SVG/1.1/DTD/svg11.dtd"><svg t="1779876283793" class="icon" viewBox="0 0 1024 1024" version="1.1" xmlns="http://www.w3.org/2000/svg" p-id="10514" xmlns:xlink="http://www.w3.org/1999/xlink" width="200" height="200"><path d="M910.61422459 463.88201245c-24.51855486-58.42251219-72.2093448-97.32338725-127.5508559-126.37282608-14.27875714-7.49537658-31.79385995-10.21390697-44.10491891 0.6731599-12.84181965 11.36604603-3.27518183 24.95869787 2.86092958 38.53840434 8.45333491 18.69313264 13.26901728 39.1727281 18.27888039 59.23807131 3.04216494 12.16865975-1.52755516 23.12045353-11.67673522 31.05597314-10.8611761 8.49217106-18.84847725 0.58254222-27.9231905-4.51793856-42.88805294-24.117248-86.00912276-47.84613452-129.14313799-71.53618489-34.91369718-19.17211181-69.63321363-18.27888039-103.10997332 3.10689186-34.92664257 22.30489442-69.63321363 44.99815031-103.71840633 68.55874684-21.37282686 14.78362706-31.3148808 8.58278875-39.12094656-14.57650092-8.5310072-25.32116859-8.85464178-50.88829947-9.43718401-76.88262796-0.78966835-35.25027714-13.61854261-43.18579675-46.66810468-33.15312513-111.04549294 33.70977659-186.24522114 102.9028472-205.50795062 219.65725392-15.96165689 96.77968118-7.26235971 192.98976553 54.00813668 274.44211359 93.20675555 123.92614875 224.31759171 169.55862282 382.16064317 169.98582043 41.60646005-3.61176178 90.12575447-5.69596839 138.85217502-17.70928355 270.3125365-66.62988483 341.18850685-307.49167565 251.8006392-520.50794824z" fill="#DE6A42" p-id="10515"></path><path d="M265.62347615 318.42769225c29.69670795-12.89360118 59.5487605-24.97164325 93.20675555-23.58648731 23.37936118 0.95795831 34.603008 5.45000613 22.52496593 32.37640217-9.94205392 22.1624952-14.48588325 46.75872237-21.3469361 70.30637353-3.88361482 13.28196268 1.98064356 22.62852898 12.54407586 29.80027101 11.24953758 7.65072118 19.21094795 1.29453827 27.13352216-6.35618291 14.92602627-14.42115635 29.60609026-29.16594725 45.29589415-42.70681757 53.28319525-45.98199941 101.41412819-51.70385857 163.72025519-17.95524585 23.83244958 12.90654657 45.87843635 29.19183803 68.41634765 44.40266273 12.86771042 8.6863518 26.77105146 22.95216355 41.45111546 11.0165207 14.62828247-11.89680672 3.72827022-27.3406483-2.79620267-41.99482155-9.08765867-20.40192317-21.56700761-38.16298825-34.42177265-55.97583485-6.00665758-8.32388109-14.93897165-17.56688435-8.40155336-27.83257285 7.01639743-11.02946608 18.30477117-4.2719763 28.24682507-1.87708048 42.86216217 10.29157925 83.64011773 25.9943285 122.42448436 46.78461313 9.45012939 5.07459003 18.80964109 11.76735289 28.05264434 2.30427812 9.16533098-9.37245709 2.097152-20.09123397-2.29133273-28.79053116-10.03267161-19.87116247-24.29848336-36.68721461-42.12427539-50.26692108-48.234496-36.73899615-102.11317886-51.57440474-163.16360373-50.38342953-91.73098192 1.78646281-86.6563919 9.3595117-86.61755577-85.63370667 0-19.45691022 0.81555911-38.96560197-0.20712611-58.37073066-1.20392059-22.9909997-11.00357531-42.21489303-36.57070618-41.73591389-26.40858075 0.49192453-38.37011437 18.47306115-37.90408059 44.31204503 0.54370608 29.82616179 0.6731599 59.6911597 2.42078658 89.45259457 2.79620267 47.62606302 1.29453827 50.46110183-47.88497067 51.31549709-74.17704297 1.28159289-139.48649876 25.34705936-194.86684603 74.63013136-11.4437183 10.17507082-33.52854124 20.71261234-19.12033028 40.0659595 11.26248297 15.10726162 28.02675359 2.88682035 42.27961996-3.30107258z" fill="#DE6A42" p-id="10516"></path></svg>